<svg width="21" height="21" viewBox="0 0 21 21" fill="none" xmlns="http://www.w3.org/2000/svg">
<path d="M10.5 2.625L10.8648 2.28303L10.5 1.89394L10.1352 2.28303L10.5 2.625ZM10 7.875C10 8.15114 10.2239 8.375 10.5 8.375C10.7761 8.375 11 8.15114 11 7.875H10ZM13.4898 5.08303L10.8648 2.28303L10.1352 2.96697L12.7602 5.76697L13.4898 5.08303ZM10.1352 2.28303L7.51023 5.08303L8.23977 5.76697L10.8648 2.96697L10.1352 2.28303ZM10 2.625V7.875H11V2.625H10Z" fill="#222222"/>
<path d="M18.375 10.5L18.717 10.8648L19.1061 10.5L18.717 10.1352L18.375 10.5ZM13.125 10C12.8489 10 12.625 10.2239 12.625 10.5C12.625 10.7761 12.8489 11 13.125 11L13.125 10ZM15.917 13.4898L18.717 10.8648L18.033 10.1352L15.233 12.7602L15.917 13.4898ZM18.717 10.1352L15.917 7.51023L15.233 8.23977L18.033 10.8648L18.717 10.1352ZM18.375 10L13.125 10L13.125 11L18.375 11L18.375 10Z" fill="#149C6B"/>
<path d="M10.5 18.375L10.8648 18.717L10.5 19.1061L10.1352 18.717L10.5 18.375ZM10 13.125C10 12.8489 10.2239 12.625 10.5 12.625C10.7761 12.625 11 12.8489 11 13.125H10ZM13.4898 15.917L10.8648 18.717L10.1352 18.033L12.7602 15.233L13.4898 15.917ZM10.1352 18.717L7.51023 15.917L8.23977 15.233L10.8648 18.033L10.1352 18.717ZM10 18.375V13.125H11V18.375H10Z" fill="#222222"/>
<path d="M2.625 10.5L2.28303 10.8648L1.89394 10.5L2.28303 10.1352L2.625 10.5ZM7.875 10C8.15114 10 8.375 10.2239 8.375 10.5C8.375 10.7761 8.15114 11 7.875 11L7.875 10ZM5.08303 13.4898L2.28303 10.8648L2.96697 10.1352L5.76697 12.7602L5.08303 13.4898ZM2.28303 10.1352L5.08303 7.51023L5.76697 8.23977L2.96697 10.8648L2.28303 10.1352ZM2.625 10L7.875 10L7.875 11L2.625 11L2.625 10Z" fill="#222222"/>
</svg>
