<svg width="17" height="17" viewBox="0 0 17 17" fill="none" xmlns="http://www.w3.org/2000/svg">
<path d="M9.22013 4.9476L9.20879 4.95895L4.288 9.87973C4.27698 9.89075 4.26603 9.90168 4.25517 9.91252C4.09269 10.0746 3.94887 10.2182 3.8475 10.3972C3.74614 10.5762 3.69706 10.7734 3.64163 10.9961C3.63792 11.011 3.63419 11.026 3.63041 11.0412L3.25855 12.5286C3.25633 12.5375 3.2541 12.5464 3.25186 12.5553C3.21262 12.712 3.17071 12.8793 3.15696 13.0199C3.14183 13.1746 3.14535 13.4357 3.35477 13.6451C3.56418 13.8545 3.82523 13.858 3.97996 13.8429C4.1205 13.8291 4.28784 13.7872 4.44453 13.748C4.45347 13.7457 4.46237 13.7435 4.47122 13.7413L5.95868 13.3694C5.9738 13.3656 5.9888 13.3619 6.0037 13.3582C6.22643 13.3028 6.4236 13.2537 6.60264 13.1523L6.35629 12.7172L6.60264 13.1523C6.78167 13.051 6.92519 12.9071 7.08732 12.7447C7.09816 12.7338 7.10908 12.7229 7.1201 12.7118L12.0409 7.79105L12.0523 7.77968C12.2082 7.62379 12.3427 7.48928 12.4464 7.37032C12.5555 7.24507 12.6551 7.11015 12.7226 6.94619C12.8733 6.5803 12.8733 6.1697 12.7226 5.80381C12.6551 5.63985 12.5555 5.50493 12.4464 5.37968C12.3427 5.26072 12.2082 5.12621 12.0523 4.97032L12.0409 4.95895L11.6873 5.3125L12.0409 4.95895L12.0296 4.94761C11.8736 4.79169 11.7391 4.65716 11.6202 4.55347C11.4949 4.44429 11.36 4.34475 11.196 4.27722L11.0056 4.73955L11.196 4.27722C10.8301 4.12654 10.4195 4.12654 10.0536 4.27722L10.2424 4.73563L10.0536 4.27722C9.88968 4.34475 9.75477 4.44429 9.62952 4.55347C9.51056 4.65716 9.37604 4.79168 9.22013 4.9476Z" stroke="#666666"/>
<path d="M8.854 5.31217L10.979 3.89551L13.104 6.02051L11.6873 8.14551L8.854 5.31217Z" fill="#666666"/>
</svg>
