<svg width="24" height="24" viewBox="0 0 24 24" fill="none" xmlns="http://www.w3.org/2000/svg">
<path fill-rule="evenodd" clip-rule="evenodd" d="M14.5044 3.87388C13.7356 3.53639 12.8877 3.35 12.0002 3.35C8.82245 3.35 6.1529 5.73936 5.80198 8.89764L5.55018 11.1639L5.54398 11.2192C5.42551 12.2515 5.08947 13.2471 4.55803 14.1401L4.52944 14.1878L3.95141 15.1512L3.93409 15.1801C3.68659 15.5925 3.47579 15.9439 3.33769 16.2371C3.19799 16.5337 3.07705 16.8803 3.13651 17.2572C3.19868 17.6511 3.40144 18.0093 3.70729 18.2653C3.99984 18.5101 4.35929 18.5848 4.68551 18.6176C5.008 18.65 5.41769 18.65 5.89871 18.65H5.93239H18.0679H18.1016C18.5826 18.65 18.9923 18.65 19.3148 18.6176C19.641 18.5848 20.0005 18.5101 20.293 18.2653C20.5989 18.0093 20.8016 17.6511 20.8638 17.2572C20.9233 16.8803 20.8023 16.5337 20.6626 16.2371C20.5245 15.9439 20.3138 15.5926 20.0663 15.1801L20.0489 15.1512L19.4709 14.1878L19.4423 14.1401C18.9108 13.2471 18.5748 12.2515 18.4563 11.2192L18.4501 11.1639L18.4038 10.7468C18.0036 10.8968 17.573 10.9845 17.1237 10.9981L17.1581 11.3074L17.1648 11.3674C17.3042 12.5824 17.6997 13.754 18.3251 14.8049L18.3561 14.8567L18.9342 15.8201C19.2037 16.2693 19.3797 16.5642 19.4865 16.791C19.5751 16.9789 19.5792 17.0477 19.5793 17.0568C19.5659 17.1387 19.5237 17.2132 19.4603 17.2669C19.4525 17.2715 19.3914 17.3033 19.1847 17.3241C18.9352 17.3492 18.5919 17.35 18.0679 17.35H5.93239C5.40843 17.35 5.06508 17.3492 4.81564 17.3241C4.60891 17.3033 4.54783 17.2715 4.53998 17.2669C4.47664 17.2132 4.43446 17.1387 4.42099 17.0568C4.42108 17.0477 4.42526 16.9789 4.51378 16.791C4.6206 16.5642 4.79658 16.2693 5.06615 15.8201L5.64419 14.8567L5.67517 14.8049C6.30061 13.754 6.69608 12.5824 6.83551 11.3674L6.84223 11.3074L7.09403 9.0412C7.3718 6.54128 9.48486 4.65 12.0002 4.65C12.5541 4.65 13.0884 4.74171 13.588 4.91144C13.8315 4.51455 14.1422 4.1634 14.5044 3.87388ZM16.3429 5.11051C15.9144 5.25952 15.5523 5.55012 15.3125 5.92629C16.1687 6.70112 16.7546 7.7753 16.9013 8.9976C16.934 8.99919 16.967 9 17.0001 9C17.4336 9 17.8349 8.86209 18.1625 8.62776C17.9486 7.24815 17.2896 6.02871 16.3429 5.11051Z" fill="#149C6B"/>
<path d="M9.10222 18.4059C9.27315 19.1501 9.64978 19.8077 10.1737 20.2767C10.6976 20.7458 11.3396 21 12 21C12.6604 21 13.3024 20.7458 13.8263 20.2767C14.3502 19.8077 14.7269 19.1501 14.8978 18.4059" stroke="#149C6B" stroke-width="1.3" stroke-linecap="round"/>
<circle cx="17" cy="7" r="2" fill="#DB2222"/>
</svg>
