<svg width="113" height="113" viewBox="0 0 113 113" fill="none" xmlns="http://www.w3.org/2000/svg">
<path d="M49.4367 69.5794V87.8895C49.4367 91.3528 46.2703 94.1673 42.3742 94.1673H18.8325C14.9364 94.1673 11.77 91.3528 11.77 87.8895V25.1118C11.77 21.6485 14.9364 18.834 18.8325 18.834H42.3742C46.2703 18.834 49.4367 21.6485 49.4367 25.1118V43.4219" stroke="#149C6B" stroke-width="4" stroke-miterlimit="10" stroke-linecap="round"/>
<path d="M63.5615 43.4219V25.1118C63.5615 21.6485 66.7279 18.834 70.624 18.834H94.1657C98.0618 18.834 101.228 21.6485 101.228 25.1118V87.8895C101.228 91.3528 98.0618 94.1673 94.1657 94.1673H70.624C66.7279 94.1673 63.5615 91.3528 63.5615 87.8895V69.5794" stroke="#149C6B" stroke-width="4" stroke-miterlimit="10" stroke-linecap="round"/>
<path d="M11.77 79.5195H49.4367" stroke="#149C6B" stroke-width="4" stroke-miterlimit="10" stroke-linecap="round"/>
<path d="M64.7388 79.5195H100.051" stroke="#149C6B" stroke-width="4" stroke-miterlimit="10" stroke-linecap="round"/>
<path d="M63.5615 32.4355H101.228" stroke="#149C6B" stroke-width="4" stroke-miterlimit="10" stroke-linecap="round"/>
<path d="M29.4268 56.5029H83.5726" stroke="#149C6B" stroke-width="4" stroke-miterlimit="10" stroke-linecap="round"/>
<path d="M75.3335 64.8716L84.7502 56.5012L75.3335 48.1309" stroke="#149C6B" stroke-width="4" stroke-miterlimit="10" stroke-linecap="round" stroke-linejoin="round"/>
<path d="M37.6662 48.1309L28.2495 56.5012L37.6662 64.8716" stroke="#149C6B" stroke-width="4" stroke-miterlimit="10" stroke-linecap="round" stroke-linejoin="round"/>
</svg>
