<svg width="48" height="21" viewBox="0 0 48 21" fill="none" xmlns="http://www.w3.org/2000/svg">
<rect x="48" width="21" height="48" rx="10.5" transform="rotate(90 48 0)" fill="#149C6B"/>
<path d="M45 10.5C45 15.1944 41.1944 19 36.5 19C31.8056 19 28 15.1944 28 10.5C28 5.80558 31.8056 2 36.5 2C41.1944 2 45 5.80558 45 10.5Z" fill="white"/>
<path d="M9.87638 14.107C9.38375 14.107 8.94982 13.9931 8.57459 13.7652C8.19936 13.5373 7.9093 13.2173 7.70442 12.8052C7.49954 12.3909 7.3971 11.9132 7.3971 11.3722C7.3971 10.8267 7.49954 10.3467 7.70442 9.93232C7.9093 9.51796 8.19936 9.19682 8.57459 8.96892C8.94982 8.74102 9.38375 8.62707 9.87638 8.62707C10.369 8.62707 10.8018 8.74102 11.1747 8.96892C11.55 9.19682 11.8389 9.51796 12.0414 9.93232C12.2463 10.3467 12.3488 10.8267 12.3488 11.3722C12.3488 11.9132 12.2463 12.3909 12.0414 12.8052C11.8389 13.2173 11.55 13.5373 11.1747 13.7652C10.8018 13.9931 10.369 14.107 9.87638 14.107ZM9.87983 13.2369C10.1883 13.2369 10.4484 13.154 10.6602 12.9883C10.8743 12.8225 11.0343 12.5981 11.1402 12.3149C11.2461 12.0318 11.299 11.7164 11.299 11.3688C11.299 11.0212 11.2461 10.7058 11.1402 10.4227C11.0343 10.1395 10.8743 9.9139 10.6602 9.74586C10.4484 9.57781 10.1883 9.49378 9.87983 9.49378C9.56676 9.49378 9.30203 9.57781 9.08564 9.74586C8.87155 9.9139 8.71156 10.1395 8.60566 10.4227C8.49977 10.7058 8.44682 11.0212 8.44682 11.3688C8.44682 11.7164 8.49977 12.0318 8.60566 12.3149C8.71156 12.5981 8.87155 12.8225 9.08564 12.9883C9.30203 13.154 9.56676 13.2369 9.87983 13.2369ZM14.4204 10.8543V14H13.3775V8.69613H14.3789V9.56285H14.4445C14.5297 9.37178 14.6437 9.20603 14.7864 9.06561C14.9314 8.92518 15.1064 8.81699 15.3112 8.74102C15.5161 8.66506 15.7486 8.62707 16.0088 8.62707C16.3725 8.62707 16.6902 8.70419 16.9618 8.85843C17.2334 9.01036 17.4429 9.23596 17.5903 9.53522C17.7399 9.83448 17.8147 10.1982 17.8147 10.6264V14H16.7719V10.7541C16.7719 10.5009 16.727 10.2822 16.6372 10.0981C16.5474 9.9116 16.4185 9.77003 16.2505 9.67334C16.0847 9.57666 15.8856 9.52831 15.6531 9.52831C15.4114 9.52831 15.1984 9.58126 15.0143 9.68715C14.8301 9.79075 14.6851 9.94268 14.5792 10.143C14.4733 10.3409 14.4204 10.578 14.4204 10.8543Z" fill="white"/>
</svg>
