<svg width="60" height="60" viewBox="0 0 60 60" fill="none" xmlns="http://www.w3.org/2000/svg">
<path d="M32.7085 42.5001L32.7078 43.2501L32.7093 43.2501L32.7085 42.5001ZM32.7378 42.5L32.7378 41.75L32.737 41.75L32.7378 42.5ZM32.6793 42.5L32.68 41.75H32.6793V42.5ZM20.2001 22.1528L20.3731 21.423L20.2001 22.1528ZM20.7819 21.9029L20.1318 21.5289L20.7819 21.9029ZM46.2121 26.1446L45.4755 26.2859L46.2121 26.1446ZM46.65 26.5688L46.7741 25.8292L46.65 26.5688ZM17.8125 42.5L17.8125 41.75L17.8125 42.5ZM32.7093 43.2501L32.7386 43.25L32.737 41.75L32.7078 41.7501L32.7093 43.2501ZM32.6785 43.25L32.7078 43.2501L32.7093 41.7501L32.68 41.75L32.6785 43.25ZM17.8125 43.25H32.6793V41.75H17.8125V43.25ZM6.75 32.1875C6.75 38.2971 11.7028 43.25 17.8125 43.25L17.8125 41.75C12.5313 41.75 8.25 37.4687 8.25 32.1875H6.75ZM17.8125 21.125C11.7029 21.125 6.75 26.0778 6.75 32.1875H8.25C8.25 26.9063 12.5313 22.625 17.8125 22.625V21.125ZM20.3731 21.423C19.5505 21.228 18.693 21.125 17.8125 21.125V22.625C18.5757 22.625 19.317 22.7142 20.0271 22.8825L20.3731 21.423ZM32.7085 14.25C27.3284 14.25 22.6336 17.1806 20.1318 21.5289L21.432 22.2769C23.6771 18.3747 27.8868 15.75 32.7085 15.75V14.25ZM46.9486 26.0033C45.6646 19.3086 39.7781 14.25 32.7085 14.25V15.75C39.0452 15.75 44.3244 20.2845 45.4755 26.2859L46.9486 26.0033ZM54.084 34.4787C54.084 30.1321 50.9229 26.5252 46.7741 25.8292L46.5259 27.3085C49.9641 27.8853 52.584 30.8768 52.584 34.4787H54.084ZM45.3131 43.2496C50.1571 43.2496 54.084 39.3227 54.084 34.4787H52.584C52.584 38.4943 49.3287 41.7496 45.3131 41.7496V43.2496ZM45.3128 43.2496H45.3131V41.7496H45.3128V43.2496ZM32.7378 43.25H45.3123V41.75H32.7378V43.25ZM44.5625 42.4998C44.5625 42.0846 44.8994 41.75 45.3123 41.75V43.25C45.7255 43.25 46.0625 42.9153 46.0625 42.4998H44.5625ZM45.3128 41.7496C44.8984 41.7496 44.5625 42.0855 44.5625 42.4998H46.0625C46.0625 42.9139 45.7268 43.2496 45.3128 43.2496V41.7496ZM20.0271 22.8825C20.5734 23.012 21.1478 22.7709 21.432 22.2769L20.1318 21.5289C20.1828 21.4404 20.2819 21.4014 20.3731 21.423L20.0271 22.8825ZM45.4755 26.2859C45.5779 26.8199 46.0047 27.221 46.5259 27.3085L46.7741 25.8292C46.8562 25.8429 46.9301 25.9068 46.9486 26.0033L45.4755 26.2859ZM18.5625 42.5C18.5625 42.0239 18.162 41.75 17.8125 41.75L17.8125 43.25C17.613 43.25 17.4354 43.1714 17.3064 43.0535C17.1754 42.9338 17.0625 42.7416 17.0625 42.5H18.5625ZM17.8125 41.75C18.2267 41.75 18.5625 42.0858 18.5625 42.5H17.0625C17.0625 42.9142 17.3983 43.25 17.8125 43.25V41.75Z" fill="black"/>
</svg>
