<svg width="60" height="60" viewBox="0 0 60 60" fill="none" xmlns="http://www.w3.org/2000/svg">
<path d="M45.2682 40L45.3128 40.0002C49.7426 40.0002 53.3337 36.4091 53.3337 31.9793C53.3337 28.2004 50.7205 25.0319 47.2026 24.1824C46.6614 24.0517 46.2215 23.6356 46.0942 23.0936C44.6678 17.021 39.216 12.5 32.7082 12.5C27.8219 12.5 23.5309 15.0488 21.0922 18.8893C20.7788 19.3829 20.188 19.6328 19.6122 19.5314C19.0278 19.4286 18.4264 19.3749 17.8125 19.3749C12.1171 19.3749 7.5 23.992 7.5 29.6874C7.5 35.3829 12.1171 40 17.8125 40" stroke="black" stroke-width="1.5" stroke-linecap="round"/>
<path d="M37.5 40L40 47.5" stroke="black" stroke-width="1.5" stroke-linecap="round"/>
<path d="M30 40L32.5 47.5" stroke="black" stroke-width="1.5" stroke-linecap="round"/>
<path d="M22.5 40L25 47.5" stroke="black" stroke-width="1.5" stroke-linecap="round"/>
</svg>
