<svg width="60" height="60" viewBox="0 0 60 60" fill="none" xmlns="http://www.w3.org/2000/svg">
<path d="M45.2682 40L45.3128 40.0002C49.7426 40.0002 53.3337 36.4091 53.3337 31.9793C53.3337 28.2004 50.7205 25.0319 47.2026 24.1824C46.6614 24.0517 46.2215 23.6356 46.0942 23.0936C44.6678 17.021 39.216 12.5 32.7082 12.5C27.8219 12.5 23.5309 15.0488 21.0922 18.8893C20.7788 19.3829 20.188 19.6328 19.6122 19.5314C19.0278 19.4286 18.4264 19.3749 17.8125 19.3749C12.1171 19.3749 7.5 23.992 7.5 29.6874C7.5 35.3829 12.1171 40 17.8125 40" stroke="black" stroke-width="1.5" stroke-linecap="round"/>
<path fill-rule="evenodd" clip-rule="evenodd" d="M20 45.751C20 44.5083 21.0023 43.501 22.2388 43.501H22.2612C23.4977 43.501 24.5 44.5083 24.5 45.751C24.5 46.9936 23.4977 48.001 22.2612 48.001H22.2388C21.0023 48.001 20 46.9936 20 45.751Z" fill="black"/>
<path fill-rule="evenodd" clip-rule="evenodd" d="M29 41.249C29 40.0064 30.0023 38.999 31.2388 38.999H31.2612C32.4977 38.999 33.5 40.0064 33.5 41.249C33.5 42.4917 32.4977 43.499 31.2612 43.499H31.2388C30.0023 43.499 29 42.4917 29 41.249Z" fill="black"/>
<path fill-rule="evenodd" clip-rule="evenodd" d="M29 50.25C29 49.0074 30.0023 48 31.2388 48H31.2612C32.4977 48 33.5 49.0074 33.5 50.25C33.5 51.4926 32.4977 52.5 31.2612 52.5H31.2388C30.0023 52.5 29 51.4926 29 50.25Z" fill="black"/>
<path fill-rule="evenodd" clip-rule="evenodd" d="M38.0005 45.751C38.0005 44.5083 39.0028 43.501 40.2393 43.501H40.2617C41.4981 43.501 42.5005 44.5083 42.5005 45.751C42.5005 46.9936 41.4981 48.001 40.2617 48.001H40.2393C39.0028 48.001 38.0005 46.9936 38.0005 45.751Z" fill="black"/>
</svg>
