<svg width="60" height="60" viewBox="0 0 60 60" fill="none" xmlns="http://www.w3.org/2000/svg">
<path fill-rule="evenodd" clip-rule="evenodd" d="M30 39.001C34.9706 39.001 39 34.9715 39 30.001C39 25.0304 34.9706 21.001 30 21.001C25.0294 21.001 21 25.0304 21 30.001C21 34.9715 25.0294 39.001 30 39.001Z" stroke="black" stroke-width="1.35"/>
<path d="M30 14.251V9.75098" stroke="black" stroke-width="1.35" stroke-linecap="round" stroke-linejoin="round"/>
<path d="M30 50.25V45.75" stroke="black" stroke-width="1.35" stroke-linecap="round" stroke-linejoin="round"/>
<path fill-rule="evenodd" clip-rule="evenodd" d="M14.25 30H7.5H14.25Z" stroke="black" stroke-width="1.35" stroke-linecap="round" stroke-linejoin="round"/>
<path fill-rule="evenodd" clip-rule="evenodd" d="M52.4995 30H45.7495H52.4995Z" stroke="black" stroke-width="1.35" stroke-linecap="round" stroke-linejoin="round"/>
<path fill-rule="evenodd" clip-rule="evenodd" d="M41.1367 18.8628L45.9097 14.0898L41.1367 18.8628Z" stroke="black" stroke-width="1.35" stroke-linecap="round" stroke-linejoin="round"/>
<path fill-rule="evenodd" clip-rule="evenodd" d="M14.0903 45.9107L18.8633 41.1377L14.0903 45.9107Z" stroke="black" stroke-width="1.35" stroke-linecap="round" stroke-linejoin="round"/>
<path fill-rule="evenodd" clip-rule="evenodd" d="M41.1367 41.1377L45.9097 45.9107L41.1367 41.1377Z" stroke="black" stroke-width="1.35" stroke-linecap="round" stroke-linejoin="round"/>
<path fill-rule="evenodd" clip-rule="evenodd" d="M14.0903 14.0898L18.8633 18.8628L14.0903 14.0898Z" stroke="black" stroke-width="1.35" stroke-linecap="round" stroke-linejoin="round"/>
</svg>
