<svg width="60" height="60" viewBox="0 0 60 60" fill="none" xmlns="http://www.w3.org/2000/svg">
<path d="M25.1764 15.1727C25.6413 14.7051 26.2144 14.3596 26.845 14.1669C27.4755 13.9742 28.1439 13.9403 28.7908 14.0682C29.4376 14.196 30.0428 14.4818 30.5526 14.8999C31.0624 15.318 31.461 15.8557 31.7129 16.465C31.9649 17.0743 32.0624 17.7364 31.9968 18.3925C31.9311 19.0486 31.7044 19.6783 31.3368 20.2256C30.9692 20.7729 30.472 21.221 29.8895 21.5299C29.307 21.8388 28.6572 21.9989 27.9978 21.9962H9.98877M31.1794 44.8277C31.6443 45.2953 32.2174 45.6408 32.848 45.8335C33.4786 46.0262 34.147 46.0601 34.7938 45.9322C35.4406 45.8044 36.0458 45.5186 36.5556 45.1005C37.0654 44.6824 37.464 44.1447 37.716 43.5354C37.9679 42.9261 38.0654 42.264 37.9998 41.6079C37.9342 40.9518 37.7075 40.3221 37.3398 39.7748C36.9722 39.2275 36.475 38.7794 35.8925 38.4705C35.31 38.1616 34.6602 38.0015 34.0008 38.0042H9.98877M41.4646 21.4559C42.0466 20.8754 42.7627 20.4472 43.5495 20.2093C44.3363 19.9714 45.1697 19.931 45.9758 20.0918C46.782 20.2526 47.5361 20.6095 48.1715 21.1311C48.8068 21.6526 49.3039 22.3227 49.6186 23.0821C49.9334 23.8415 50.0562 24.6667 49.9762 25.4848C49.8961 26.3029 49.6157 27.0887 49.1597 27.7727C48.7037 28.4566 48.0862 29.0177 47.3618 29.4062C46.6374 29.7947 45.8284 29.9987 45.0064 30.0002H9.98877" stroke="black" stroke-width="1.33337" stroke-linecap="round" stroke-linejoin="round"/>
</svg>
