<svg width="60" height="60" viewBox="0 0 60 60" fill="none" xmlns="http://www.w3.org/2000/svg">
<rect x="28.75" y="5" width="2.5" height="12.5" rx="0.1" fill="#222222"/>
<path d="M44.9511 17.5H15.0489C15.018 17.5 14.9889 17.5142 14.97 17.5386L7.52106 27.1158C7.50741 27.1333 7.5 27.1549 7.5 27.1772V37.4C7.5 37.4552 7.54477 37.5 7.6 37.5H52.4C52.4552 37.5 52.5 37.4552 52.5 37.4V27.1772C52.5 27.1549 52.4926 27.1333 52.4789 27.1158L45.03 17.5386C45.0111 17.5142 44.982 17.5 44.9511 17.5Z" stroke="#222222"/>
<path d="M45 37.5C45 45.7843 38.2843 52.5 30 52.5C21.7157 52.5 15 45.7843 15 37.5" stroke="#222222"/>
<rect x="15" y="30" width="10" height="2.5" rx="0.1" fill="#222222"/>
</svg>
