<svg width="60" height="60" viewBox="0 0 24 24" fill="none" xmlns="http://www.w3.org/2000/svg">
<rect x="11.5" y="2" width="1" height="5" rx="0.1" fill="#222222"/>
<path d="M17.9511 7H6.04891C6.01805 7 5.98892 7.01425 5.96997 7.03861L3.02106 10.8301C3.00741 10.8476 3 10.8692 3 10.8915V14.9C3 14.9552 3.04477 15 3.1 15H20.9C20.9552 15 21 14.9552 21 14.9V10.8915C21 10.8692 20.9926 10.8476 20.9789 10.8301L18.03 7.03861C18.0111 7.01425 17.982 7 17.9511 7Z" stroke="#222222"/>
<path d="M18 15C18 18.3137 15.3137 21 12 21C8.68629 21 6 18.3137 6 15" stroke="#222222"/>
<rect x="6" y="12" width="4" height="1" rx="0.1" fill="#222222"/>
</svg>
