<svg width="24" height="24" viewBox="0 0 24 24" fill="none" xmlns="http://www.w3.org/2000/svg">
<path d="M21.9 4H2.1C2.04477 4 2 4.04477 2 4.1V16.9C2 16.9552 2.04477 17 2.1 17H21.9C21.9552 17 22 16.9552 22 16.9V4.1C22 4.04477 21.9552 4 21.9 4Z" stroke="white"/>
<rect x="16" y="14" width="4" height="1" rx="0.1" fill="white"/>
<rect x="12.5" y="17" width="3" height="1" rx="0.1" transform="rotate(90 12.5 17)" fill="white"/>
<rect x="18" y="20" width="12" height="0.999999" rx="0.1" transform="rotate(-180 18 20)" fill="white"/>
<path d="M10.5 12.4C10.5 12.4552 10.4552 12.5 10.4 12.5H9.6C9.54477 12.5 9.5 12.4552 9.5 12.4L9.5 8.6C9.5 8.54477 9.54477 8.5 9.6 8.5L10.4 8.5C10.4552 8.5 10.5 8.54477 10.5 8.6L10.5 12.4Z" fill="white"/>
<path d="M8.1 9.5C8.04477 9.5 8 9.45523 8 9.4L8 8.6C8 8.54477 8.04477 8.5 8.1 8.5L11.9 8.5C11.9552 8.5 12 8.54477 12 8.6V9.4C12 9.45523 11.9552 9.5 11.9 9.5L8.1 9.5Z" fill="white"/>
<path d="M13.9065 8.5H13.1024C13.031 8.5 12.9815 8.56974 13.0066 8.63511L14.4638 12.4351C14.4788 12.4741 14.5169 12.5 14.5596 12.5H15.3637C15.4351 12.5 15.4846 12.4303 15.4595 12.3649L14.0023 8.56489C13.9873 8.52586 13.9492 8.5 13.9065 8.5Z" fill="white"/>
<path d="M16.0935 8.5H16.8976C16.969 8.5 17.0185 8.56974 16.9934 8.63511L15.5362 12.4351C15.5212 12.4741 15.4831 12.5 15.4404 12.5H14.6363C14.5649 12.5 14.5154 12.4303 14.5405 12.3649L15.9977 8.56489C16.0127 8.52586 16.0508 8.5 16.0935 8.5Z" fill="white"/>
</svg>
