<svg width="22" height="22" viewBox="0 0 22 22" fill="none" xmlns="http://www.w3.org/2000/svg">
<path fill-rule="evenodd" clip-rule="evenodd" d="M2.29157 10.1194C3.31149 8.36142 6.0763 4.58301 11.0002 4.58301C15.9241 4.58301 18.6889 8.36142 19.7088 10.1194C19.9302 10.5009 20.0408 10.6917 20.0288 10.9828C20.0168 11.2739 19.8869 11.4604 19.6271 11.8335C18.4174 13.5704 15.2582 17.4163 11.0002 17.4163C6.74217 17.4163 3.58298 13.5704 2.37333 11.8335C2.11353 11.4604 1.98362 11.2739 1.97159 10.9828C1.95956 10.6917 2.07023 10.5009 2.29157 10.1194ZM11.0002 13.7497C12.519 13.7497 13.7502 12.5185 13.7502 10.9997C13.7502 9.48089 12.519 8.24967 11.0002 8.24967C9.48141 8.24967 8.2502 9.48089 8.2502 10.9997C8.2502 12.5185 9.48141 13.7497 11.0002 13.7497Z" fill="white"/>
<path d="M11.0002 4.58301C6.07626 4.58301 3.31145 8.36142 2.29153 10.1194C2.07019 10.5009 1.95952 10.6917 1.97156 10.9828C1.98359 11.2739 2.11349 11.4604 2.3733 11.8335C3.58295 13.5704 6.74214 17.4163 11.0002 17.4163C15.2582 17.4163 18.4174 13.5704 19.627 11.8335C19.8868 11.4604 20.0167 11.2739 20.0288 10.9828C20.0408 10.6917 19.9301 10.5009 19.7088 10.1194C18.6889 8.36142 15.9241 4.58301 11.0002 4.58301Z" stroke="#222222" stroke-width="1.2"/>
<circle cx="11" cy="11" r="2.75" stroke="#149C6B" stroke-width="1.2"/>
</svg>
